<svg xmlns="http://www.w3.org/2000/svg" version="1.1" xmlns:xlink="http://www.w3.org/1999/xlink" xmlns:svgjs="http://svgjs.dev/svgjs" width="1000" height="1000" viewBox="0 0 1000 1000"><rect width="1000" height="1000" fill="#0b022d"></rect><g transform="matrix(0.7,0,0,0.7,149.5757670755528,427.6652078512848)"><svg viewBox="0 0 396 82" data-background-color="#0b022d" preserveAspectRatio="xMidYMid meet" height="207" width="1000" xmlns="http://www.w3.org/2000/svg" xmlns:xlink="http://www.w3.org/1999/xlink"><defs></defs><g id="tight-bounds" transform="matrix(1,0,0,1,0.23999462583014974,-0.06519693943593552)"><svg viewBox="0 0 395.52 82.1303939291209" height="82.1303939291209" width="395.52"><g><svg viewBox="0 0 481.4158379585775 99.96680930232556" height="82.1303939291209" width="395.52"><g transform="matrix(1,0,0,1,85.89583795857752,13.815962790697668)"><svg viewBox="0 0 395.52 72.33488372093022" height="72.33488372093022" width="395.52"><g><svg viewBox="0 0 395.52 72.33488372093022" height="72.33488372093022" width="395.52"><g><svg viewBox="0 0 395.52 72.33488372093022" height="72.33488372093022" width="395.52"><g transform="matrix(1,0,0,1,0,0)"><svg width="395.52" viewBox="2.5 -39.45000076293945 221.42999267578125 40.5" height="72.33488372093022" data-palette-color="#f7fff7"><path d="M21.25 0L30.75-7.1 42.15-7.1 42.15 0 21.25 0ZM2.5-18.35L2.5-18.35Q2.5-22.15 3.95-25.55 5.4-28.95 7.98-31.58 10.55-34.2 13.95-35.7 17.35-37.2 21.25-37.2L21.25-37.2Q25.1-37.2 28.5-35.7 31.9-34.2 34.52-31.58 37.15-28.95 38.63-25.55 40.1-22.15 40.1-18.35L40.1-18.35Q40.1-14.45 38.63-11.05 37.15-7.65 34.52-5.08 31.9-2.5 28.5-1.05 25.1 0.4 21.25 0.4L21.25 0.4Q17.35 0.4 13.95-1.05 10.55-2.5 7.98-5.08 5.4-7.65 3.95-11.05 2.5-14.45 2.5-18.35ZM10-18.35L10-18.35Q10-15.95 10.88-13.83 11.75-11.7 13.33-10.08 14.9-8.45 16.98-7.55 19.05-6.65 21.5-6.65L21.5-6.65Q23.85-6.65 25.88-7.55 27.9-8.45 29.4-10.05 30.9-11.65 31.75-13.78 32.6-15.9 32.6-18.35L32.6-18.35Q32.6-20.75 31.73-22.88 30.85-25 29.33-26.6 27.8-28.2 25.75-29.1 23.7-30 21.3-30L21.3-30Q18.9-30 16.85-29.1 14.8-28.2 13.25-26.6 11.7-25 10.85-22.88 10-20.75 10-18.35ZM55.3 1.05L55.3 1.05Q52.35 1.05 50.35-0.78 48.35-2.6 48.25-5.5L48.25-5.5 48.25-21.85 55.25-21.85 55.25-8.1Q55.35-6.65 56-5.78 56.65-4.9 58.2-4.9L58.2-4.9Q59.75-4.9 60.87-5.95 62-7 62.62-8.83 63.25-10.65 63.25-12.95L63.25-12.95 63.25-21.85 70.25-21.85 70.25 0 63.9 0 63.35-4 63.45-3.55Q62.7-2.2 61.55-1.15 60.4-0.1 58.82 0.48 57.25 1.05 55.3 1.05ZM77.45 0L77.45-21.85 84.45-21.85 84.45 0 77.45 0ZM77.3-29.6L77.3-29.6Q77.3-31.15 78.52-32.15 79.75-33.15 81.15-33.15L81.15-33.15Q82.55-33.15 83.72-32.15 84.9-31.15 84.9-29.6L84.9-29.6Q84.9-28.05 83.72-27.08 82.55-26.1 81.15-26.1L81.15-26.1Q79.75-26.1 78.52-27.08 77.3-28.05 77.3-29.6ZM106.69-6.35L110.19-1.95Q108.74-0.8 106.57-0.1 104.39 0.6 102.29 0.6L102.29 0.6Q98.54 0.6 95.77-0.78 92.99-2.15 91.47-4.73 89.94-7.3 89.94-10.95L89.94-10.95Q89.94-14.6 91.59-17.18 93.24-19.75 95.92-21.1 98.59-22.45 101.54-22.45L101.54-22.45Q104.49-22.45 106.67-21.65 108.84-20.85 110.39-19.55L110.39-19.55 106.99-15.05Q106.29-15.6 105.07-16.18 103.84-16.75 102.19-16.75L102.19-16.75Q100.74-16.75 99.54-16 98.34-15.25 97.64-13.95 96.94-12.65 96.94-10.95L96.94-10.95Q96.94-9.35 97.69-8 98.44-6.65 99.77-5.88 101.09-5.1 102.89-5.1L102.89-5.1Q104.04-5.1 105.02-5.43 105.99-5.75 106.69-6.35L106.69-6.35ZM122.59 0L115.59 0 115.59-39.45 122.59-39.45 122.59 0ZM123.54-10.85L128.14-14.85 138.04 0 129.89 0 123.54-10.85ZM137.24-18.65L120.49-6.05 119.79-12.7 132.99-22.4 137.24-18.65ZM173.09 0L160.29 0 160.29-36.8 171.29-36.8Q176.84-36.8 180.74-35.15 184.64-33.5 187.01-30.75 189.39-28 190.49-24.6 191.59-21.2 191.59-17.75L191.59-17.75Q191.59-13.65 190.11-10.38 188.64-7.1 186.09-4.78 183.54-2.45 180.19-1.23 176.84 0 173.09 0L173.09 0ZM167.54-29.85L167.54-7 171.84-7Q174.59-7 176.84-7.73 179.09-8.45 180.71-9.85 182.34-11.25 183.21-13.38 184.09-15.5 184.09-18.25L184.09-18.25Q184.09-21.85 182.91-24.13 181.74-26.4 180.01-27.65 178.29-28.9 176.49-29.38 174.69-29.85 173.44-29.85L173.44-29.85 167.54-29.85ZM198.83-36.8L209.63-36.8Q215.38-36.8 218.78-34.48 222.18-32.15 222.18-27.55L222.18-27.55Q222.18-24.15 220.51-21.88 218.83-19.6 215.96-18.48 213.08-17.35 209.38-17.35L209.38-17.35 208.23-21.25Q212.78-21.25 216.31-20 219.83-18.75 221.88-16.43 223.93-14.1 223.93-10.85L223.93-10.85Q223.93-7.85 222.86-5.78 221.78-3.7 219.96-2.43 218.13-1.15 215.83-0.58 213.53 0 211.08 0L211.08 0 198.83 0 198.83-36.8ZM206.08-21.75L210.48-21.75Q212.63-21.75 213.66-23.05 214.68-24.35 214.68-26L214.68-26Q214.68-27.9 213.41-28.85 212.13-29.8 209.98-29.8L209.98-29.8 206.08-29.8 206.08-21.75ZM206.08-6.75L210.73-6.75Q212.33-6.75 213.63-7.18 214.93-7.6 215.68-8.53 216.43-9.45 216.43-10.85L216.43-10.85Q216.43-12.45 215.53-13.28 214.63-14.1 213.21-14.43 211.78-14.75 210.23-14.75L210.23-14.75 206.08-14.75 206.08-6.75Z" opacity="1" transform="matrix(1,0,0,1,0,0)" fill="#f7fff7" class="undefined-text-0" data-fill-palette-color="primary" id="text-0"></path></svg></g></svg></g></svg></g></svg></g><g><svg viewBox="0 0 68.81930794927518 99.96680930232556" height="99.96680930232556" width="68.81930794927518"><g><svg xmlns="http://www.w3.org/2000/svg" xmlns:xlink="http://www.w3.org/1999/xlink" version="1.1" x="0" y="0" viewBox="20.098997116088867 7.4730000495910645 55.800010681152344 81.05500030517578" enable-background="new 0 0 96 96" xml:space="preserve" height="99.96680930232556" width="68.81930794927518" class="icon-icon-0" data-fill-palette-color="accent" id="icon-0"><g fill="#b67dee" data-fill-palette-color="accent"><polygon points="20.102,12.921 20.102,23.822 30.354,18.372  " fill="#b67dee" data-fill-palette-color="accent"></polygon><path d="M69.979 57.469c-0.52-3.671-1.973-7.184-4.202-10.158l-0.39-0.521 4.116-4.117-3.552-3.552-3.64 3.642-5.288 6.39c3.398 2.679 5.591 6.82 5.591 11.473 0 5.276-2.873 10.1-7.346 12.674l2.822 0.452-0.236 1.48-6.037-0.967 1.649-6.395 1.453 0.375L53.86 72.35c4.391-2.199 7.255-6.735 7.255-11.725 0-4.188-1.981-7.915-5.047-10.317L41.583 67.812l9.021-20.039c-0.842-0.171-1.713-0.262-2.604-0.262-7.231 0-13.114 5.883-13.114 13.114 0 7.232 5.883 13.116 13.114 13.116v1.5c-8.059 0-14.614-6.557-14.614-14.616 0-8.059 6.556-14.614 14.614-14.614 1.111 0 2.189 0.136 3.229 0.372l3.158-7.016c-1.057-0.317-2.137-0.565-3.233-0.722l-0.645-0.091v-3.765l-5.019 0.259v3.506l-0.645 0.091c-3.677 0.521-7.19 1.976-10.163 4.205l-0.521 0.391-4.114-4.12-3.552 3.552 4.12 4.117-0.391 0.521c-2.23 2.972-3.687 6.484-4.21 10.159l-0.092 0.645h-5.823v5.021h5.823l0.092 0.645c0.523 3.673 1.979 7.186 4.21 10.158l0.391 0.521-4.12 4.12 3.552 3.55 4.113-4.118 0.521 0.39c2.977 2.231 6.491 3.686 10.163 4.206l0.645 0.091v5.829h5.019v-5.829l0.645-0.091c3.675-0.521 7.188-1.976 10.158-4.205l0.521-0.391 4.119 4.119 3.552-3.551-4.116-4.118 0.391-0.521c2.229-2.973 3.682-6.486 4.201-10.16l0.091-0.645h5.829v-5.021H70.07L69.979 57.469z" fill="#b67dee" data-fill-palette-color="accent"></path><polygon points="45.491,33.547 50.51,33.289 52.01,33.211 58.967,32.852 56.434,38.478 55.816,39.85 52.688,46.796 52.072,48.167    47.513,58.293 54.83,49.452 55.796,48.286 60.668,42.398 61.633,41.231 71.311,29.538 54.825,23.474 56.657,7.473 40.114,33.825    43.991,33.625  " fill="#b67dee" data-fill-palette-color="accent"></polygon><polygon points="28.165,24.408 28.868,25.732 42.715,18.372 28.868,11.011 28.165,12.335 39.52,18.372  " fill="#b67dee" data-fill-palette-color="accent"></polygon></g></svg></g></svg></g></svg></g></svg><rect width="395.52" height="82.1303939291209" fill="none" stroke="none" visibility="hidden"></rect></g></svg></g></svg>